<?xml version="1.0" encoding="UTF-8"?>
<svg enable-background="new 0 0 800 310" width="800" height="310" version="1.1" viewBox="0 0 800 310" xml:space="preserve" xmlns="http://www.w3.org/2000/svg" xmlns:cc="http://creativecommons.org/ns#" xmlns:dc="http://purl.org/dc/elements/1.1/" xmlns:rdf="http://www.w3.org/1999/02/22-rdf-syntax-ns#"><metadata><rdf:RDF><cc:Work rdf:about=""><dc:format>image/svg+xml</dc:format><dc:type rdf:resource="http://purl.org/dc/dcmitype/StillImage"/><dc:title/></cc:Work></rdf:RDF></metadata><defs><filter id="a" x="-.0078963" y="-.024984" width="1.0158" height="1.05" color-interpolation-filters="sRGB"><feGaussianBlur stdDeviation="2.5689456"/></filter></defs>  
<path d="m323.74 37.358v138.93l-46.681-135.99h-54.517l-42.545 132.43c-3.0816-6.6402-5.3252-11.963-10.061-17.336 10.707-14.52 11.53-34.941 11.488-51.695-1.8369-20.114-18.219-47.935-34.5-56.154-5.3154-2.5999-11.73-4.367-19.16-5.4727s-19.283-1.6582-35.563-1.6582h-75.637v243.26h76.227c17.364-0.11226 36.268 1.31 43.782-0.34843 4.4338-0.97871 12.239-10.806 9.1735 0.34843 0 0 1.6238-0.34843 1.6238-0.34843l69.99 0.34843 9.166-25.082h50.703l5.8535 25.082h40.656 77.619s-1.3945-70.99-1.3945-70.99c10.149 25.372 17.776 42.586 32.109 70.99h48.965 75.619l-1.3945-68.412c10.149 25.372 19.778 40.008 34.111 68.412h81.639 59.092l1.9707-98.137 65.295-146.96h-79.223s-20.277 48.461-20.277 48.461l-26.427-48.461h-78.542c5.4928 6.6225-20.478-0.62811-24.879-0.64074h-86.984v31.654c-3.6728-6.2608-7.8766-11.525-12.08-15.531-11.598-11.133-31.01-16.699-58.236-16.699h-86.982m-231.58 48.688c7.7813 0.35154 15.412 3.4166 19.023 12.145 1.6035 3.8751 2.5976 6.7706 2.5976 14.842-1.9089 14.478-13.88 20.833-21.621 18.623v-45.609m309.54 8.7441c11.654 0.23006 22.57 8.0725 24.459 24.842-1.2146 14.212-8.5786 23.969-24.807 24.502 0 0 0.34766-49.344 0.34766-49.344m159.3 2.5781c11.654 0.23005 20.57 8.0725 22.459 24.842-1.2146 14.212-6.5786 23.969-22.807 24.502 0 0 0.34766-49.344 0.34766-49.344m83.934 55.363s14.971 32.773 14.971 32.773v78.051c-11.821-17.67-19.304-43.5-28.863-63.049-4.6062-8.6591-1.864-7.1348-8.1484-17.027 9.9526-5.8477 16.968-20.046 21.738-30.055 0.10724-0.22499 0.19997-0.46404 0.30273-0.69336m-395.32 2.4434 11.715 41.928h-22.846l11.131-41.928m231.42 7.9434v47.492c-2.4499-4.792-5.2166-8.8327-7.291-12.682-4.6062-8.6591-1.864-7.1329-8.1484-17.025 6.2477-3.6709 11.336-10.635 15.439-17.785m-367.95 24.912c6.3794 16.194-2.0221 39.152-19.88 36.137v-46.504c9.4013-0.13965 15.392 5.3005 19.88 10.367" fill="#666" filter="url(#a)"/><path d="m321.58 31.571v138.93l-46.681-135.99h-54.517l-42.545 132.43c-3.0816-6.6402-5.3252-11.963-10.061-17.336 10.707-14.52 11.53-34.941 11.488-51.695-1.8369-20.114-18.219-47.935-34.5-56.154-5.3154-2.5999-11.73-4.367-19.16-5.4727s-19.283-1.6582-35.563-1.6582h-75.637v243.26h76.227c17.364-0.11226 35.223 1.6584 42.736 0 6.176-0.28185 13.921-5.6288 16.779-7.0182l-0.88529 6.5254 65.938 0.49276 9.166-25.082h50.703l5.8535 25.082h40.656 77.619s-1.3945-70.99-1.3945-70.99c10.149 25.372 17.776 42.586 32.109 70.99h48.965 75.619l-1.3945-68.412c10.149 25.372 19.778 40.008 34.111 68.412h81.639 59.092l1.9707-98.137 65.295-146.96h-79.223s-20.277 48.461-20.277 48.461l-26.427-48.461h-78.542c5.4928 6.6225-20.478-0.62811-24.879-0.64074h-86.984v31.654c-3.6728-6.2608-7.8766-11.525-12.08-15.531-11.598-11.133-31.01-16.699-58.236-16.699h-86.982m-231.58 48.688c7.7813 0.35154 15.412 3.4166 19.023 12.145 1.6035 3.8751 2.5976 6.7706 2.5976 14.842-1.9089 14.478-13.88 20.833-21.621 18.623v-45.609m309.54 8.7441c11.654 0.23006 22.57 8.0725 24.459 24.842-1.2146 14.212-8.5786 23.969-24.807 24.502 0 0 0.34766-49.344 0.34766-49.344m159.3 2.5781c11.654 0.23005 20.57 8.0725 22.459 24.842-1.2146 14.212-6.5786 23.969-22.807 24.502 0 0 0.34766-49.344 0.34766-49.344m83.934 55.363 14.971 32.773v78.051c-11.821-17.67-19.304-43.5-28.863-63.049-4.6062-8.6591-1.864-7.1348-8.1484-17.027 9.9526-5.8477 16.968-20.046 21.738-30.055 0.10724-0.22499 0.19997-0.46404 0.30273-0.69336m-395.32 2.4434 11.715 41.928h-22.846l11.131-41.928m231.42 7.9434v47.492c-2.4499-4.792-5.2166-8.8327-7.291-12.682-4.6062-8.6591-1.864-7.1329-8.1484-17.025 6.2477-3.6709 11.336-10.635 15.439-17.785m-367.95 24.912c6.3794 16.194-2.0221 39.152-19.88 36.137v-46.504c9.4013-0.13965 15.392 5.3005 19.88 10.367" fill="#eb2227"/></svg>
